<?xml version="1.0" encoding="utf-8"?>
<!-- Generator: Adobe Illustrator 16.0.0, SVG Export Plug-In . SVG Version: 6.00 Build 0)  -->
<!DOCTYPE svg PUBLIC "-//W3C//DTD SVG 1.1//EN" "http://www.w3.org/Graphics/SVG/1.1/DTD/svg11.dtd">
<svg version="1.1" id="Layer_1" xmlns="http://www.w3.org/2000/svg" xmlns:xlink="http://www.w3.org/1999/xlink" x="0px" y="0px"
	 width="512px" height="512px" viewBox="0 0 512 512" enable-background="new 0 0 512 512" xml:space="preserve">
<path d="M372.623,65.628c-16.005-16.425-33.863-29.041-53.699-37.202c-18.862-8.745-40.16-13.117-62.904-13.117
	c-26.122,0.962-47.401,5.796-64.829,14.039c-18.401,8.724-35.769,21.76-51.262,39.199c-15.504,16.456-26.614,33.362-33.372,52.245
	c-8.264,21.76-12.145,41.144-12.145,58.542c1.004,16.917,6.308,34.355,16.456,51.784c9.698,18.841,21.77,37.222,37.263,55.624
	c9.656,12.585,16.435,21.299,20.798,26.122c13.046,18.381,49.367,53.196,36.27,76.901c-7.751,3.901-12.073,9.195-13.036,15.545
	c0.973,5.775,5.294,11.059,13.036,15.441c-7.751,3.399-12.073,8.745-13.036,15.483c0,4.863,4.332,9.655,13.036,14.521
	c-8.714,4.864-13.036,9.175-13.036,13.056c0.973,6.277,5.294,10.199,13.036,12.083c0,7.302,4.382,12.145,14.049,14.521
	c7.25,3.42,18.862,5.335,35.318,6.298c16.425-0.962,29.02-2.877,36.741-6.298c9.697-2.877,14.521-7.721,14.521-14.521
	c6.779-1.884,10.639-5.796,10.639-12.083c0-4.844-3.861-9.175-10.639-13.056c6.779-4.864,10.639-9.656,10.639-14.521
	c0-6.318-3.861-12.083-10.639-16.477c6.779-4.321,10.639-9.165,10.639-14.438c0-5.836-3.861-11.643-10.639-17.459
	c-13.538-23.663,19.825-57.559,34.815-73.983c2.919-3.901,6.318-8.284,10.66-13.077c3.861-4.361,7.741-8.744,11.12-13.537
	c16.005-17.921,29.041-36.323,38.718-55.185c10.138-16.917,15.503-34.345,16.426-52.715v-6.779c0-18.361-3.82-37.263-11.603-57.098
	C398.265,98.55,387.103,82.095,372.623,65.628L372.623,65.628z M402.104,187.054c-0.941,16.476-6.276,32.441-15.002,47.442
	c-8.662,16.937-20.315,33.361-35.298,49.838c-2.877,4.322-6.298,8.182-9.655,12.083c-3.882,4.362-6.76,8.224-9.697,11.623
	c-12.677,14.019-43.1,54.743-37.059,77.343h8.756v7.885h-3.677c4.495,4.444,8.306,7.26,8.306,11.5c0,3-4.517,7.056-9.38,10.578
	h4.301v7.896h-5.397c5.581,3.42,11.418,7.219,11.418,11.5c0,3.123-4.885,7.936-9.964,11.837h4.158v7.895h-4.291
	c3.697,2.438,6.717,4.936,7.7,7.845c1.925,5.355-5.817,7.28-12.124,8.744h7.045v5.438h-7.22c-0.439,3.562-2.017,5.939-8.059,7.598
	c-16.896,6.801-45.456,6.801-63.386,0c-6.451-1.821-8.632-3.881-9.319-7.598h-8.335v-5.438h4.638
	c-4.813-1.557-7.957-3.963-8.725-8.744c0-2.663,4.045-5.12,9.083-7.845h-3.358v-7.905h3.717
	c-5.591-3.983-10.414-8.684-10.414-11.837c0.748-4.465,6.134-8.337,11.684-11.5h-5.191v-7.896h2.13
	c-4.301-3.399-8.007-7.219-8.622-10.578c0.798-4.403,5.007-8.161,10.291-11.5h-3.349v-7.885h8.438
	c3.676-22.938-28.006-62.781-39.086-77.865c-3.41-4.362-9.666-12.585-18.361-24.155c-14.07-15.965-25.19-32.923-33.894-49.817
	c-8.714-15.984-14.039-31.458-14.51-46.48c0-15.944,3.359-33.382,10.629-53.197c6.297-16.916,15.995-32.42,29.972-46.96
	c14.07-15.944,29.553-27.535,46.96-35.277c15.001-7.721,34.345-12.103,58.051-13.056c20.809,0,39.67,3.861,57.088,12.083
	c17.899,7.26,33.885,18.924,48.404,33.403c12.544,15.001,22.743,29.983,29.983,45.005c6.778,17.899,10.618,35.297,10.618,51.763
	v6.236L402.104,187.054z"/>
<path d="M217.314,420.73c-1.516,0.778-3.143,1.618-4.762,2.498h85.73c-1.956-1.156-3.882-2.345-5.478-3.502
	c1.976-1.197,4.321-2.765,6.583-4.402h-89.887C212.082,417.372,214.785,419.287,217.314,420.73L217.314,420.73z"/>
<path d="M298.281,423.229h5.396v-7.895h-4.301c-2.263,1.639-4.598,3.205-6.584,4.402C294.4,420.895,296.326,422.071,298.281,423.229
	z"/>
<path d="M209.49,415.334h-2.13v7.895h5.191c1.618-0.88,3.236-1.721,4.762-2.498C214.783,419.287,212.081,417.373,209.49,415.334z"/>
<path d="M217.794,450.734c-2.345,1.32-4.69,2.519-6.871,3.737h88.699c-1.843-1.26-3.779-2.498-5.858-3.737
	c1.822-1.138,3.901-2.58,5.98-4.158h-88.453C213.41,448.091,215.643,449.504,217.794,450.734L217.794,450.734z"/>
<path d="M211.282,446.567h-3.717v7.895h3.358c2.181-1.219,4.516-2.416,6.871-3.738C215.644,449.505,213.412,448.092,211.282,446.567
	L211.282,446.567z"/>
<path d="M299.623,454.471h4.281v-7.905h-4.158c-2.079,1.576-4.158,3.021-5.98,4.157C295.846,451.973,297.78,453.211,299.623,454.471
	L299.623,454.471z"/>
<path d="M214.395,391.188c-1.137,0.677-2.191,1.342-3.226,2.059h89.293c-1.075-1.064-2.202-2.161-3.338-3.502
	c-0.758-1.362-1.341-2.837-1.741-4.383h-79.125c-0.348,2.09-0.86,4.087-1.863,5.828V391.188z"/>
<path d="M216.258,385.372h-8.438v7.885h3.349c1.044-0.717,2.089-1.382,3.226-2.058C215.399,389.448,215.911,387.451,216.258,385.372
	z"/>
<path d="M300.462,393.247h3.676v-7.886h-8.755c0.399,1.537,0.983,3.021,1.741,4.383
	C298.261,391.085,299.377,392.191,300.462,393.247L300.462,393.247z"/>
<path d="M213.924,472.034c0,1.741,0.071,3.205,0.327,4.464h80.763c0.205-1.577,0.186-3.318,0.186-5.438h-84.633
	C211.631,471.408,212.685,471.746,213.924,472.034L213.924,472.034z"/>
<path d="M295.023,476.488h7.22v-5.438h-7.046C295.197,473.17,295.219,474.911,295.023,476.488L295.023,476.488z"/>
<path d="M210.565,471.05h-4.638v5.438h8.325c-0.256-1.261-0.327-2.725-0.327-4.464c-1.239-0.276-2.294-0.615-3.358-0.974
	L210.565,471.05z"/>
</svg>
