<?xml version="1.0" encoding="utf-8"?>
<!-- Generator: Adobe Illustrator 16.0.0, SVG Export Plug-In . SVG Version: 6.00 Build 0)  -->
<!DOCTYPE svg PUBLIC "-//W3C//DTD SVG 1.1//EN" "http://www.w3.org/Graphics/SVG/1.1/DTD/svg11.dtd">
<svg version="1.1"
	 id="svg2997" xmlns:cc="http://creativecommons.org/ns#" xmlns:dc="http://purl.org/dc/elements/1.1/" xmlns:inkscape="http://www.inkscape.org/namespaces/inkscape" xmlns:sodipodi="http://sodipodi.sourceforge.net/DTD/sodipodi-0.dtd" xmlns:svg="http://www.w3.org/2000/svg" xmlns:rdf="http://www.w3.org/1999/02/22-rdf-syntax-ns#" sodipodi:docname="1 euro.svg" inkscape:version="0.48.1 r9760"
	 xmlns="http://www.w3.org/2000/svg" xmlns:xlink="http://www.w3.org/1999/xlink" x="0px" y="0px" width="715.132px"
	 height="719.16px" viewBox="0 0 715.132 719.16" enable-background="new 0 0 715.132 719.16" xml:space="preserve">
<sodipodi:namedview  id="base" fit-margin-left="0" borderopacity="1.0" bordercolor="#666666" pagecolor="#ffffff" inkscape:cx="215.81825" inkscape:cy="239.1548" fit-margin-top="0" showgrid="false" inkscape:zoom="0.35" fit-margin-bottom="0" fit-margin-right="0" inkscape:window-maximized="1" inkscape:window-y="24" inkscape:window-x="0" inkscape:window-height="823" inkscape:window-width="1600" inkscape:current-layer="layer3" inkscape:document-units="px" inkscape:pageshadow="2" inkscape:pageopacity="0.0">
	</sodipodi:namedview>
<g id="layer4" transform="translate(-13.376974,-26.164386)" inkscape:label="piece" inkscape:groupmode="layer">
</g>
<g id="layer5" transform="translate(-13.376974,-26.164386)" inkscape:label="europe" inkscape:groupmode="layer">
</g>
<g id="layer6" transform="translate(-13.376974,-26.164386)" inkscape:label="Textes" inkscape:groupmode="layer">
</g>
<path id="path3165" sodipodi:cx="377.79706" sodipodi:ry="587.90875" sodipodi:cy="472.53464" sodipodi:type="arc" sodipodi:rx="600.03058" fill="#B9A464" fill-opacity="0.9932" stroke="#000000" stroke-width="3" d="
	M714.25,359.583c0,198.086-159.693,358.667-356.683,358.667c-196.991,0-356.684-160.58-356.684-358.667S160.575,0.916,357.566,0.916
	C554.556,0.916,714.25,161.496,714.25,359.583z"/>
<path id="path3167" sodipodi:cx="384.28571" sodipodi:ry="15.714286" sodipodi:cy="459.50504" sodipodi:type="arc" sodipodi:rx="561.42859" fill="#D0C27B" stroke="#000000" stroke-width="0.3476" d="
	M699.99,357.191c0,189.091-152.191,342.379-339.93,342.379c-187.738,0-339.929-153.288-339.929-342.379
	S172.322,14.812,360.06,14.812C547.798,14.812,699.99,168.101,699.99,357.191z"/>
<linearGradient id="path7998_1_" gradientUnits="userSpaceOnUse" x1="-511.6431" y1="643.7832" x2="724.7847" y2="643.7832" gradientTransform="matrix(0.4164 0 0 -0.6985 314.744 809.3675)">
	<stop  offset="0" style="stop-color:#E6E6E6"/>
	<stop  offset="1" style="stop-color:#CCCCCC;stop-opacity:0.7459"/>
</linearGradient>
<path id="path7998" sodipodi:cx="393.9595" sodipodi:ry="371.73615" sodipodi:cy="129.08275" sodipodi:type="arc" sodipodi:rx="618.21338" fill="url(#path7998_1_)" stroke="#000000" stroke-width="1.1147" d="
	M616.535,359.678c0,143.407-115.25,259.662-257.416,259.662c-142.167,0-257.417-116.255-257.417-259.662
	s115.249-259.662,257.417-259.662C501.285,100.016,616.535,216.271,616.535,359.678z"/>
<linearGradient id="path7998-6_1_" gradientUnits="userSpaceOnUse" x1="-511.7456" y1="604.0283" x2="725.0045" y2="604.0283" gradientTransform="matrix(0.4164 0 0 -0.6985 314.744 809.3675)">
	<stop  offset="0" style="stop-color:#E6E6E6"/>
	<stop  offset="1" style="stop-color:#CCCCCC;stop-opacity:0.7459"/>
</linearGradient>
<path id="path7998-6" inkscape:connector-curvature="0" fill="url(#path7998-6_1_)" d="M616.203,373.132
	c-2.174,4.473-3.574,9.491-4.02,14.935c-0.242,4.998,0.133,9.567,0.996,13.695C614.695,392.378,615.712,382.824,616.203,373.132
	L616.203,373.132z"/>
<path id="path3019-4" sodipodi:cx="582.85803" sodipodi:arg1="0.98279372" sodipodi:cy="49.785782" sodipodi:type="star" sodipodi:sides="5" sodipodi:r2="10.015931" sodipodi:r1="20.031862" sodipodi:arg2="1.6111123" inkscape:flatsided="false" inkscape:rounded="0" inkscape:randomized="0" inkscape:transform-center-x="-0.22368245" inkscape:transform-center-y="-1.4736385" fill-opacity="0.3246" stroke="#000000" stroke-width="1.9136" d="
	M545.771,151.082l-6.207-3.524l-6.475,3.022l1.496-6.885l-4.928-5.113l7.129-0.73l3.43-6.182l2.912,6.433l7.047,1.292l-5.33,4.707
	L545.771,151.082z"/>
<path id="path3019-1" sodipodi:cx="582.85803" sodipodi:arg1="0.98279372" sodipodi:cy="49.785782" sodipodi:type="star" sodipodi:sides="5" sodipodi:r2="10.015931" sodipodi:r1="20.031862" sodipodi:arg2="1.6111123" inkscape:flatsided="false" inkscape:rounded="0" inkscape:randomized="0" inkscape:transform-center-x="-0.22368245" inkscape:transform-center-y="-1.4736385" fill-opacity="0.3137" stroke="#000000" stroke-width="1.9136" d="
	M573.4,170.514l-6.205-3.524l-6.477,3.022l1.496-6.884l-4.928-5.113l7.131-0.731l3.43-6.182l2.91,6.433l7.049,1.292l-5.332,4.707
	L573.4,170.514z"/>
<path id="path3019-56" sodipodi:cx="582.85803" sodipodi:arg1="0.98279372" sodipodi:cy="49.785782" sodipodi:type="star" sodipodi:sides="5" sodipodi:r2="10.015931" sodipodi:r1="20.031862" sodipodi:arg2="1.6111123" inkscape:flatsided="false" inkscape:rounded="0" inkscape:randomized="0" inkscape:transform-center-x="-0.22368245" inkscape:transform-center-y="-1.4736385" fill-opacity="0.3137" stroke="#000000" stroke-width="1.9136" d="
	M600.119,200.876l-6.205-3.524l-6.477,3.022l1.496-6.885l-4.928-5.113l7.131-0.73l3.43-6.182l2.91,6.433l7.049,1.292l-5.332,4.707
	L600.119,200.876z"/>
<path id="path3019-56-2" sodipodi:cx="582.85803" sodipodi:arg1="0.98279372" sodipodi:cy="49.785782" sodipodi:type="star" sodipodi:sides="5" sodipodi:r2="10.015931" sodipodi:r1="20.031862" sodipodi:arg2="1.6111123" inkscape:flatsided="false" inkscape:rounded="0" inkscape:randomized="0" inkscape:transform-center-x="-0.22368245" inkscape:transform-center-y="-1.4736385" fill-opacity="0.3137" stroke="#000000" stroke-width="1.9136" d="
	M624.826,236.719l-6.205-3.524l-6.475,3.021l1.494-6.884l-4.928-5.113l7.131-0.73l3.43-6.182l2.912,6.433l7.047,1.292l-5.332,4.707
	L624.826,236.719z"/>
<path id="path3017" sodipodi:nodetypes="cccccccccsscccc" inkscape:connector-curvature="0" fill-opacity="0.3137" stroke="#000000" stroke-width="0.6011" d="
	M230.753,525.005l199.481,2.732l2.732-10.93l-34.006-6.073c-21.857-4.918-33.297-18.767-32.487-43.114l79.853-293.908h-8.197
	c-37.737,21.418-78.798,37.616-127.826,41.293l-1.822,6.68l46.758,3.34c5.825,0.416,17.44,3.797,13.36,19.128l-56.171,211.02
	c-6.334,28.464-18.795,53.298-68.315,56.17l-10.627,1.822L230.753,525.005z"/>
<path id="path9170" inkscape:connector-curvature="0" fill-opacity="0.3137" stroke="#000000" stroke-width="0.6011" d="
	M567.265,425.337l-0.018,0.075C567.291,425.378,567.289,425.359,567.265,425.337z"/>
<path id="path3019" sodipodi:cx="582.85803" sodipodi:arg1="0.98279372" sodipodi:cy="49.785782" sodipodi:type="star" sodipodi:sides="5" sodipodi:r2="10.015931" sodipodi:r1="20.031862" sodipodi:arg2="1.6111123" inkscape:flatsided="false" inkscape:rounded="0" inkscape:randomized="0" inkscape:transform-center-x="-0.22368245" inkscape:transform-center-y="-1.4736385" fill-opacity="0.3137" stroke="#000000" stroke-width="1.9136" d="
	M494.289,114.672l-6.205-3.524l-6.477,3.022l1.496-6.885l-4.928-5.113l7.131-0.73l3.43-6.182l2.91,6.433l7.049,1.292l-5.332,4.707
	L494.289,114.672z"/>
<path id="path3019-5" sodipodi:cx="582.85803" sodipodi:arg1="0.98279372" sodipodi:cy="49.785782" sodipodi:type="star" sodipodi:sides="5" sodipodi:r2="10.015931" sodipodi:r1="20.031862" sodipodi:arg2="1.6111123" inkscape:flatsided="false" inkscape:rounded="0" inkscape:randomized="0" inkscape:transform-center-x="-0.22368245" inkscape:transform-center-y="-1.4736385" fill-opacity="0.3137" stroke="#000000" stroke-width="1.9136" d="
	M520.265,132.257l-6.205-3.524l-6.475,3.022l1.494-6.885l-4.928-5.113l7.131-0.73l3.43-6.182l2.912,6.433l7.047,1.292l-5.332,4.706
	L520.265,132.257z"/>
<path id="path3019-56-7" sodipodi:cx="582.85803" sodipodi:arg1="0.98279372" sodipodi:cy="49.785782" sodipodi:type="star" sodipodi:sides="5" sodipodi:r2="10.015931" sodipodi:r1="20.031862" sodipodi:arg2="1.6111123" inkscape:flatsided="false" inkscape:rounded="0" inkscape:randomized="0" inkscape:transform-center-x="-0.22368245" inkscape:transform-center-y="-1.4736385" fill-opacity="0.3137" stroke="#000000" stroke-width="1.9136" d="
	M623.539,503.8l-6.207-3.524l-6.475,3.022l1.496-6.885l-4.928-5.113l7.131-0.73l3.43-6.182l2.91,6.433l7.047,1.292l-5.33,4.707
	L623.539,503.8z"/>
<path id="path3019-56-23" sodipodi:cx="582.85803" sodipodi:arg1="0.98279372" sodipodi:cy="49.785782" sodipodi:type="star" sodipodi:sides="5" sodipodi:r2="10.015931" sodipodi:r1="20.031862" sodipodi:arg2="1.6111123" inkscape:flatsided="false" inkscape:rounded="0" inkscape:randomized="0" inkscape:transform-center-x="-0.22368245" inkscape:transform-center-y="-1.4736385" fill-opacity="0.3137" stroke="#000000" stroke-width="1.9136" d="
	M597.345,536.004l-6.205-3.524l-6.477,3.022l1.496-6.885l-4.928-5.113l7.131-0.73l3.43-6.182l2.91,6.433l7.049,1.293l-5.332,4.706
	L597.345,536.004z"/>
<path id="path3019-56-70" sodipodi:cx="582.85803" sodipodi:arg1="0.98279372" sodipodi:cy="49.785782" sodipodi:type="star" sodipodi:sides="5" sodipodi:r2="10.015931" sodipodi:r1="20.031862" sodipodi:arg2="1.6111123" inkscape:flatsided="false" inkscape:rounded="0" inkscape:randomized="0" inkscape:transform-center-x="-0.22368245" inkscape:transform-center-y="-1.4736385" fill-opacity="0.3137" stroke="#000000" stroke-width="1.9136" d="
	M573.3,565.202l-6.207-3.524l-6.475,3.022l1.496-6.885l-4.928-5.112l7.131-0.73l3.428-6.183l2.912,6.434l7.047,1.292l-5.33,4.706
	L573.3,565.202z"/>
<path id="path3019-56-8" sodipodi:cx="582.85803" sodipodi:arg1="0.98279372" sodipodi:cy="49.785782" sodipodi:type="star" sodipodi:sides="5" sodipodi:r2="10.015931" sodipodi:r1="20.031862" sodipodi:arg2="1.6111123" inkscape:flatsided="false" inkscape:rounded="0" inkscape:randomized="0" inkscape:transform-center-x="-0.22368245" inkscape:transform-center-y="-1.4736385" fill-opacity="0.3137" stroke="#000000" stroke-width="1.9136" d="
	M546.248,587.96l-6.205-3.524l-6.475,3.022l1.494-6.885l-4.928-5.112l7.131-0.731l3.43-6.182l2.912,6.433l7.047,1.293l-5.332,4.706
	L546.248,587.96z"/>
<path id="path3019-56-76" sodipodi:cx="582.85803" sodipodi:arg1="0.98279372" sodipodi:cy="49.785782" sodipodi:type="star" sodipodi:sides="5" sodipodi:r2="10.015931" sodipodi:r1="20.031862" sodipodi:arg2="1.6111123" inkscape:flatsided="false" inkscape:rounded="0" inkscape:randomized="0" inkscape:transform-center-x="-0.22368245" inkscape:transform-center-y="-1.4736385" fill-opacity="0.3137" stroke="#000000" stroke-width="1.9136" d="
	M520.486,608.57l-6.207-3.523l-6.475,3.021l1.496-6.885l-4.93-5.112l7.131-0.73l3.43-6.183l2.912,6.434l7.047,1.292l-5.332,4.706
	L520.486,608.57z"/>
<path id="path3019-56-73" sodipodi:cx="582.85803" sodipodi:arg1="0.98279372" sodipodi:cy="49.785782" sodipodi:type="star" sodipodi:sides="5" sodipodi:r2="10.015931" sodipodi:r1="20.031862" sodipodi:arg2="1.6111123" inkscape:flatsided="false" inkscape:rounded="0" inkscape:randomized="0" inkscape:transform-center-x="-0.22368245" inkscape:transform-center-y="-1.4736385" fill-opacity="0.3137" stroke="#000000" stroke-width="1.9136" d="
	M494.292,624.028l-6.207-3.523l-6.475,3.021l1.496-6.885l-4.928-5.112l7.131-0.73l3.428-6.182l2.912,6.433l7.047,1.292l-5.33,4.706
	L494.292,624.028z"/>
<path id="rect3882" fill-opacity="0.3137" stroke="#000000" stroke-width="1.0219" d="M488.912,67.595h0.6
	c0.84,0,1.521,0.682,1.521,1.521v14.871c0,0.84-0.682,1.521-1.521,1.521h-0.6c-0.842,0-1.521-0.681-1.521-1.521V69.116
	C487.39,68.276,488.07,67.595,488.912,67.595z"/>
<path id="rect3882-6" fill-opacity="0.3137" stroke="#000000" stroke-width="1.0219" d="M514.111,82.321h0.602
	c0.84,0,1.521,0.681,1.521,1.521v14.871c0,0.84-0.682,1.521-1.521,1.521h-0.602c-0.84,0-1.521-0.681-1.521-1.521V83.842
	C512.589,83.002,513.271,82.321,514.111,82.321z"/>
<path id="rect3882-5" fill-opacity="0.3137" stroke="#000000" stroke-width="1.0219" d="M539.919,96.895h0.602
	c0.84,0,1.521,0.682,1.521,1.521v14.871c0,0.84-0.682,1.521-1.521,1.521h-0.602c-0.84,0-1.521-0.681-1.521-1.521V98.416
	C538.398,97.576,539.08,96.895,539.919,96.895z"/>
<path id="rect3882-63" fill-opacity="0.3137" stroke="#000000" stroke-width="1.0219" d="M566.943,118.148h0.6
	c0.84,0,1.521,0.681,1.521,1.521v14.871c0,0.84-0.682,1.521-1.521,1.521h-0.6c-0.842,0-1.521-0.682-1.521-1.521V119.67
	C565.421,118.83,566.101,118.148,566.943,118.148z"/>
<path id="rect3882-0" fill-opacity="0.3137" stroke="#000000" stroke-width="1.0219" d="M592.447,143.045h0.6
	c0.842,0,1.521,0.681,1.521,1.521v21.678c0,0.841-0.68,1.521-1.521,1.521h-0.6c-0.84,0-1.521-0.681-1.521-1.521v-21.678
	C590.925,143.727,591.607,143.045,592.447,143.045z"/>
<path id="rect3882-2" fill-opacity="0.3137" stroke="#000000" stroke-width="1.0219" d="M619.166,173.712h0.602
	c0.84,0,1.521,0.681,1.521,1.521v26.89c0,0.84-0.682,1.521-1.521,1.521h-0.602c-0.84,0-1.521-0.681-1.521-1.521v-26.89
	C617.644,174.393,618.326,173.712,619.166,173.712z"/>
<path id="rect3882-3" fill-opacity="0.3137" stroke="#000000" stroke-width="1.0219" d="M487.697,630.97h0.6
	c0.84,0,1.521,0.682,1.521,1.521v14.871c0,0.84-0.682,1.521-1.521,1.521h-0.6c-0.84,0-1.521-0.682-1.521-1.521v-14.871
	C486.175,631.651,486.857,630.97,487.697,630.97z"/>
<path id="rect3882-03" fill-opacity="0.3137" stroke="#000000" stroke-width="1.0219" d="M515.326,617.003h0.602
	c0.84,0,1.521,0.682,1.521,1.521v14.871c0,0.84-0.682,1.521-1.521,1.521h-0.602c-0.84,0-1.521-0.682-1.521-1.521v-14.871
	C513.804,617.685,514.486,617.003,515.326,617.003z"/>
<path id="rect3882-673" fill-opacity="0.3137" stroke="#000000" stroke-width="1.0219" d="M539.919,595.749h0.602
	c0.84,0,1.521,0.682,1.521,1.521v21.435c0,0.84-0.682,1.521-1.521,1.521h-0.602c-0.84,0-1.521-0.682-1.521-1.521v-21.435
	C538.398,596.431,539.08,595.749,539.919,595.749z"/>
<path id="rect3882-1" fill-opacity="0.3137" stroke="#000000" stroke-width="1.0219" d="M567.246,572.37h0.602
	c0.84,0,1.521,0.682,1.521,1.521v23.598c0,0.841-0.682,1.521-1.521,1.521h-0.602c-0.84,0-1.521-0.681-1.521-1.521v-23.598
	C565.724,573.052,566.406,572.37,567.246,572.37z"/>
<path id="rect3882-53" fill-opacity="0.3137" stroke="#000000" stroke-width="1.0219" d="M591.232,544.133h0.602
	c0.84,0,1.521,0.682,1.521,1.521v24.465c0,0.841-0.682,1.521-1.521,1.521h-0.602c-0.84,0-1.521-0.681-1.521-1.521v-24.465
	C589.71,544.814,590.392,544.133,591.232,544.133z"/>
<path id="rect3882-38" fill-opacity="0.3137" stroke="#000000" stroke-width="1.0219" d="M617.951,511.038h0.602
	c0.84,0,1.521,0.682,1.521,1.521v26.935c0,0.84-0.682,1.521-1.521,1.521h-0.602c-0.84,0-1.521-0.682-1.521-1.521V512.56
	C616.429,511.72,617.111,511.038,617.951,511.038z"/>
</svg>
