<?xml version="1.0" encoding="utf-8"?>
<!-- Generator: Adobe Illustrator 16.0.0, SVG Export Plug-In . SVG Version: 6.00 Build 0)  -->
<!DOCTYPE svg PUBLIC "-//W3C//DTD SVG 1.1//EN" "http://www.w3.org/Graphics/SVG/1.1/DTD/svg11.dtd">
<svg version="1.1" id="Layer_1" xmlns="http://www.w3.org/2000/svg" xmlns:xlink="http://www.w3.org/1999/xlink" x="0px" y="0px"
	 width="512px" height="512px" viewBox="0 0 512 512" enable-background="new 0 0 512 512" xml:space="preserve">
<g>
	<g>
		<path d="M99.855,223.129l57.908-38.259l58.278,37.666l-16.608-69.919l51.939-46.823l-68.14-4.968l-26.173-66.583l-25.543,66.861
			l-68.103,5.654l52.384,46.285L99.855,223.129z M426.318,145.758c-18.427-18.407-49.233-25.061-49.233-25.061L75.09,422.692
			c0,0,18.277,18.238,36.22,36.257c18.277,18.24,36.257,36.22,36.257,36.22l301.996-301.995
			C449.562,193.174,444.113,163.572,426.318,145.758z M147.568,471.035c0,0-11.975-12.012-24.171-24.172
			c-11.975-12.013-24.172-24.171-24.172-24.171L296.527,225.39c0,0,20.574,4.43,32.847,16.72
			c11.863,11.863,15.496,31.604,15.496,31.604L147.568,471.035z M269.203,120.679l32.328-21.373l32.55,21.039l-9.269-39.056
			l29.027-26.155l-38.074-2.762L301.16,15.169l-14.271,37.332l-38.038,3.17l29.25,25.858L269.203,120.679z"/>
	</g>
</g>
</svg>
